<?xml version="1.0" encoding="utf-8"?>
<!-- Generator: Adobe Illustrator 27.1.0, SVG Export Plug-In . SVG Version: 6.00 Build 0)  -->
<svg version="1.1" id="Ebene_1" xmlns="http://www.w3.org/2000/svg" xmlns:xlink="http://www.w3.org/1999/xlink" x="0px" y="0px"
	 viewBox="0 0 500 500" style="enable-background:new 0 0 500 500;" xml:space="preserve">
<style type="text/css">
	.st0{fill:#060605;}
</style>
<path class="st0" d="M183.3,330.2h18c3.4,0,6.2,1.1,8.4,3.3c2.2,2.2,3.3,4.9,3.3,8.1c0,1.4-0.2,2.7-0.6,3.9
	c-0.4,1.2-0.9,2.2-1.5,2.9c-0.6,0.7-1.2,1.4-1.8,1.9s-1.1,0.9-1.5,1.1l-0.6,0.3l7.3,13.1h-7.8l-6.6-12.1h-9.2v12.1h-7.3L183.3,330.2
	L183.3,330.2z M204.4,338.2c-0.9-0.9-2-1.3-3.3-1.3h-10.4v9.1h10.4c1.3,0,2.4-0.4,3.3-1.3c0.9-0.9,1.3-1.9,1.3-3.2
	S205.3,339,204.4,338.2"/>
<path class="st0" d="M237,330.2c3.5,0,6.4,1.1,8.7,3.3c2.3,2.2,3.5,5,3.5,8.3s-1.2,6-3.5,8.3c-2.3,2.2-5.2,3.3-8.7,3.3h-11.4v11.3
	h-7.3v-34.5L237,330.2L237,330.2z M225.6,336.8v9.9h11.1c1.5,0,2.7-0.5,3.7-1.4s1.5-2.1,1.5-3.5s-0.5-2.6-1.5-3.5
	c-1-1-2.2-1.4-3.7-1.4h-11.1V336.8z"/>
<polygon class="st0" points="281.4,285.6 281.4,292.2 269.6,292.2 269.6,320.1 262.3,320.1 262.3,292.2 250.4,292.2 250.4,285.6 "/>
<path class="st0" d="M316.1,228.4h-6.6v0.7h3.4c1.7,0,2.7,0.9,2.7,2.4c0,1.4-0.9,2.2-2.4,2.2h-3.7v0.7h3.8c1.8,0,3-1.1,3-2.8
	c0-1.2-0.5-2.1-1.5-2.6l0,0h1.3L316.1,228.4L316.1,228.4z M315.6,239.8c0,1.6-1.2,2.7-2.8,2.7s-2.8-1.1-2.8-2.7
	c0-1.6,1.1-2.8,2.8-2.8S315.6,238.2,315.6,239.8 M316.1,236.4h-6.6v0.6h1.4l0,0c-0.9,0.5-1.5,1.5-1.5,2.8c0,2,1.4,3.4,3.5,3.4
	s3.5-1.4,3.5-3.4c0-1.3-0.6-2.3-1.5-2.8l0,0h1.4v-0.6H316.1z M315.6,248.3c0,1.6-1.2,2.7-2.8,2.7s-2.8-1.1-2.8-2.7
	c0-1.6,1.1-2.8,2.8-2.8S315.6,246.7,315.6,248.3 M316.1,244.8h-9.9v0.7h4.6l0,0c-0.9,0.5-1.4,1.5-1.4,2.8c0,2,1.4,3.4,3.5,3.4
	s3.5-1.4,3.5-3.4c0-1.3-0.6-2.3-1.5-2.8l0,0h1.4v-0.7H316.1z M309.4,255.9c0,1.2,0.6,2.1,1.5,2.6l0,0h-1.4v0.6h6.6v-0.7h-3.4
	c-1.7,0-2.7-0.9-2.7-2.4c0-1.4,0.9-2.2,2.4-2.2h3.7v-0.7h-3.8C310.5,253.1,309.4,254.2,309.4,255.9 M315.6,264.7
	c0,1.6-1.2,2.7-2.8,2.7s-2.8-1.1-2.8-2.7s1.1-2.8,2.8-2.8S315.6,263,315.6,264.7 M316.1,261.2h-6.6v0.6h1.4l0,0
	c-0.9,0.5-1.5,1.5-1.5,2.8c0,2,1.4,3.4,3.5,3.4s3.5-1.4,3.5-3.4c0-1.3-0.6-2.3-1.5-2.8l0,0h1.4v-0.6H316.1z M316.1,269.1h-0.7v5.8
	h-8.7v0.8h9.4L316.1,269.1L316.1,269.1z"/>
<path class="st0" d="M290.7,191.1c0,1.2,0.6,2.1,1.5,2.6l0,0h-1.4v0.6h6.6v-0.7H294c-1.7,0-2.7-0.9-2.7-2.4c0-1.4,0.9-2.2,2.4-2.2
	h3.7v-0.7h-3.8C291.9,188.2,290.7,189.3,290.7,191.1 M290.7,196.5c0,1.1,0.5,1.8,1.4,2.2l0,0h-1.3v0.6h6.6v-0.7h-3.2
	c-1.9,0-2.9-0.7-2.9-2.1c0-0.4,0.1-0.7,0.3-1l0,0H291C290.9,195.7,290.7,196.1,290.7,196.5 M291.4,204.2c0-1.5,0.9-2.6,2.4-2.7v5.4
	C292.4,206.8,291.4,205.7,291.4,204.2 M294.4,200.9H294c-1.9,0-3.2,1.3-3.2,3.4c0,2,1.4,3.4,3.5,3.4s3.5-1.5,3.5-3.8
	c0-1-0.3-2-0.9-2.6H296l0,0c0.7,0.7,1,1.5,1,2.5c0,1.8-1,3-2.6,3V200.9z M296.6,208.7L296.6,208.7c0.3,0.3,0.4,0.7,0.4,1
	c0,0.8-0.6,1.3-1.5,1.3h-4v-2.3h-0.6v2.3h-1.8v0.6l1.8,0.1v1.3h0.6v-1.3h4c1.3,0,2.1-0.7,2.1-1.9c0-0.5-0.1-0.9-0.3-1.1L296.6,208.7
	L296.6,208.7z M297.5,214.2h-6.6v0.7h3.4c1.7,0,2.7,0.9,2.7,2.4c0,1.4-0.9,2.2-2.4,2.2h-3.7v0.7h3.8c1.8,0,3-1.1,3-2.8
	c0-1.2-0.5-2.1-1.5-2.6l0,0h1.3L297.5,214.2L297.5,214.2z M297,225.6c0,1.6-1.2,2.7-2.8,2.7s-2.8-1.1-2.8-2.7c0-1.6,1.1-2.8,2.8-2.8
	S297,224,297,225.6 M297.5,222.1h-6.6v0.6h1.4l0,0c-0.9,0.5-1.5,1.5-1.5,2.8c0,2,1.4,3.4,3.5,3.4s3.5-1.4,3.5-3.4
	c0-1.3-0.6-2.3-1.5-2.8l0,0h1.4v-0.6H297.5z M297.5,230.6h-9.9v0.7h9.9V230.6z M290.7,235.3c0,1.4,0.8,2.4,2,2.4
	c1.1,0,1.6-0.6,1.7-2.4c0.1-1.5,0.4-1.9,1.2-1.9c0.8,0,1.3,0.7,1.3,1.8s-0.3,1.9-0.9,2.5l0,0h0.8c0.5-0.6,0.8-1.4,0.8-2.5
	c0-1.5-0.8-2.5-2-2.5s-1.8,0.7-1.9,2.5c-0.1,1.4-0.4,1.8-1,1.8c-0.8,0-1.3-0.7-1.3-1.7s0.2-1.7,0.7-2.1l0,0h-0.8
	C291,233.6,290.7,234.4,290.7,235.3 M290.7,239.6c0,1.1,0.5,1.8,1.4,2.2l0,0h-1.3v0.6h6.6v-0.7h-3.2c-1.9,0-2.9-0.7-2.9-2.1
	c0-0.4,0.1-0.7,0.3-1l0,0H291C290.9,238.8,290.7,239.1,290.7,239.6 M291.4,247.3c0-1.5,0.9-2.6,2.4-2.7v5.4
	C292.4,249.8,291.4,248.8,291.4,247.3 M294.4,244H294c-1.9,0-3.2,1.3-3.2,3.4c0,2,1.4,3.4,3.5,3.4s3.5-1.5,3.5-3.8
	c0-1-0.3-2-0.9-2.6H296l0,0c0.7,0.7,1,1.5,1,2.5c0,1.8-1,3-2.6,3V244z M290.7,254.3c0,1.4,0.8,2.4,2,2.4c1.1,0,1.6-0.6,1.7-2.4
	c0.1-1.5,0.4-1.9,1.2-1.9c0.8,0,1.3,0.7,1.3,1.8s-0.3,1.9-0.9,2.5l0,0h0.8c0.5-0.6,0.8-1.4,0.8-2.5c0-1.5-0.8-2.5-2-2.5
	s-1.8,0.7-1.9,2.5c-0.1,1.4-0.4,1.8-1,1.8c-0.8,0-1.3-0.7-1.3-1.7s0.2-1.7,0.7-2.1l0,0h-0.8C291,252.6,290.7,253.4,290.7,254.3
	 M297.5,258.4h-6.6v0.7h6.6V258.4z M288.2,258.7c0,0.3,0.2,0.5,0.5,0.5s0.5-0.2,0.5-0.5s-0.2-0.5-0.5-0.5
	C288.5,258.2,288.2,258.4,288.2,258.7 M297,264.6c0,1.6-1.2,2.7-2.8,2.7s-2.8-1.1-2.8-2.7s1.1-2.8,2.8-2.8S297,262.9,297,264.6
	 M297.5,261.1h-6.6v0.6h1.4l0,0c-0.9,0.5-1.5,1.5-1.5,2.8c0,2,1.4,3.4,3.5,3.4s3.5-1.4,3.5-3.4c0-1.3-0.6-2.3-1.5-2.8l0,0h1.4v-0.6
	H297.5z M297.5,275H293l4.5-5.3v-1.2l-4.8,5.6l-4.7-5.5v1.1l4.5,5.2H288v0.8h9.4V275H297.5z"/>
<path class="st0" d="M277.8,135.5L277.8,135.5c0.3,0.3,0.4,0.7,0.4,1c0,0.7-0.5,1.1-1.3,1.1h-3.4v-2.1h-1.1v2.1h-1.8v1l1.8,0.2v1.2
	h1.1v-1.2h3.4c1.5,0,2.3-0.8,2.3-2.2c0-0.5-0.1-0.9-0.2-1.2L277.8,135.5L277.8,135.5z M269.7,143.2c0,0.5,0.3,0.8,0.7,0.8
	c0.4,0,0.8-0.3,0.8-0.8c0-0.4-0.3-0.7-0.8-0.7C270,142.5,269.7,142.8,269.7,143.2 M269.7,146c0,0.4,0.3,0.7,0.7,0.7
	c0.4,0,0.8-0.3,0.8-0.7c0-0.5-0.3-0.8-0.8-0.8C270,145.3,269.7,145.6,269.7,146 M278.2,144.6c0,1.4-1,2.3-2.4,2.3s-2.4-0.9-2.4-2.3
	c0-1.3,1-2.3,2.4-2.3S278.2,143.3,278.2,144.6 M279.1,141.2h-6.6v1h1.1l0,0c-0.8,0.5-1.2,1.4-1.2,2.6c0,1.9,1.4,3.3,3.5,3.3
	s3.5-1.4,3.5-3.3c0-1.2-0.5-2.1-1.2-2.6l0,0h1.1v-1H279.1z M277.8,149.1L277.8,149.1c0.3,0.3,0.4,0.7,0.4,1c0,0.7-0.5,1.1-1.3,1.1
	h-3.4v-2.1h-1.1v2.1h-1.8v1l1.8,0.2v1.2h1.1v-1.2h3.4c1.5,0,2.3-0.8,2.3-2.2c0-0.5-0.1-0.9-0.2-1.2L277.8,149.1L277.8,149.1z
	 M279.1,154.7h-6.6v1.2h6.6V154.7z M269.6,155.4c0,0.5,0.3,0.8,0.8,0.8s0.8-0.3,0.8-0.8s-0.3-0.8-0.8-0.8
	C269.9,154.6,269.6,154.9,269.6,155.4 M272.3,159.9c0,1.5,0.9,2.6,2.1,2.6s1.8-0.6,1.9-2.4c0.1-1.2,0.3-1.6,0.9-1.6s1,0.6,1,1.5
	c0,1.1-0.3,1.9-0.9,2.4v0.1h1.3c0.5-0.6,0.7-1.4,0.7-2.5c0-1.6-0.8-2.6-2.1-2.6c-1.3,0-1.9,0.7-2,2.5c-0.1,1.1-0.3,1.5-0.8,1.5
	c-0.6,0-1-0.6-1-1.4c0-0.9,0.2-1.6,0.7-2.1v-0.1h-1.3C272.5,158.2,272.3,159,272.3,159.9 M272.3,164.2c0,1,0.4,1.7,1.2,2.1l0,0h-1.1
	v1h6.6v-1.2h-3c-1.7,0-2.6-0.6-2.6-1.9c0-0.4,0.1-0.8,0.3-1v-0.1h-1.2C272.5,163.4,272.3,163.7,272.3,164.2 M273.4,172.1
	c0-1.2,0.7-2.1,1.8-2.2v4.5C274.1,174.2,273.4,173.3,273.4,172.1 M276.2,168.8h-0.7c-1.9,0-3.2,1.3-3.2,3.4c0,2,1.4,3.5,3.5,3.5
	s3.5-1.5,3.5-3.9c0-1-0.3-1.9-0.8-2.5h-1.2v0.1c0.6,0.6,0.9,1.5,0.9,2.5c0,1.5-0.8,2.5-2,2.7L276.2,168.8L276.2,168.8z M279.1,178.8
	l-6.6-2.8v1.2l5.4,2.1l0,0l-5.4,2.1v1.3l6.6-2.8V178.8z M279.1,183.9h-6.6v1.2h6.6V183.9z M269.6,184.5c0,0.5,0.3,0.8,0.8,0.8
	s0.8-0.3,0.8-0.8s-0.3-0.8-0.8-0.8S269.6,184,269.6,184.5 M272.3,189.5c0,1.1,0.4,1.9,1.2,2.4l0,0h-1.1v1h6.6v-1.2h-3.5
	c-1.4,0-2.3-0.7-2.3-2c0-1.1,0.7-1.8,2-1.8h3.7v-1.2H275C273.5,186.8,272.3,187.8,272.3,189.5 M269.7,194.7v1.3h5.4
	c1.9,0,3,0.9,3,2.7s-1.1,2.7-3,2.7h-5.4v1.4h5.5c2.7,0,4.1-1.4,4.1-4s-1.4-4-4.1-4L269.7,194.7L269.7,194.7z M273.4,210.6
	c0-1.2,0.7-2.1,1.8-2.2v4.5C274.1,212.7,273.4,211.8,273.4,210.6 M276.2,207.3h-0.7c-1.9,0-3.2,1.3-3.2,3.4c0,2,1.4,3.5,3.5,3.5
	s3.5-1.5,3.5-3.9c0-1-0.3-1.9-0.8-2.5h-1.2v0.1c0.6,0.6,0.9,1.5,0.9,2.5c0,1.5-0.8,2.5-2,2.7L276.2,207.3L276.2,207.3z M272.3,218.1
	c0,1,0.3,1.8,1,2.2l0,0h-4.1v1.2h9.9v-1.2h-3.5c-1.4,0-2.3-0.7-2.3-2c0-1.1,0.7-1.8,2-1.8h3.7v-1.2h-3.9
	C273.5,215.4,272.3,216.4,272.3,218.1 M272.3,225.3c0,2.2,1.4,3.6,3.5,3.6c2,0,3.5-1.4,3.5-3.6c0-0.9-0.2-1.7-0.6-2.2h-1.3v0.1
	c0.6,0.5,0.9,1.1,0.9,2c0,1.5-1,2.5-2.4,2.5s-2.4-0.9-2.4-2.5c0-0.8,0.3-1.5,0.9-2v-0.1H273C272.6,223.7,272.3,224.4,272.3,225.3
	 M272.3,232.4c0,1.5,0.9,2.6,2.1,2.6s1.8-0.6,1.9-2.4c0.1-1.2,0.3-1.6,0.9-1.6s1,0.6,1,1.5c0,1.1-0.3,1.9-0.9,2.4v0.1h1.3
	c0.5-0.6,0.7-1.4,0.7-2.5c0-1.6-0.8-2.6-2.1-2.6c-1.3,0-1.9,0.7-2,2.5c-0.1,1.1-0.3,1.5-0.8,1.5c-0.6,0-1-0.6-1-1.4
	c0-0.9,0.2-1.6,0.7-2.1v-0.1h-1.3C272.5,230.7,272.3,231.5,272.3,232.4 M279.1,236.5h-6.6v1.2h6.6V236.5z M269.6,237.1
	c0,0.5,0.3,0.8,0.8,0.8s0.8-0.3,0.8-0.8s-0.3-0.8-0.8-0.8S269.6,236.6,269.6,237.1 M272.3,242.1c0,1.1,0.4,1.9,1.2,2.4l0,0h-1.1v1
	h6.6v-1.2h-3.5c-1.4,0-2.3-0.7-2.3-2c0-1.1,0.7-1.8,2-1.8h3.7v-1.2H275C273.5,239.4,272.3,240.4,272.3,242.1 M272.3,250
	c0,1,0.3,1.8,1,2.2l0,0h-4.1v1.2h9.9v-1.2h-3.5c-1.4,0-2.3-0.7-2.3-2c0-1.1,0.7-1.8,2-1.8h3.7v-1.2h-3.9
	C273.5,247.3,272.3,248.3,272.3,250 M272.3,257.2c0,2.2,1.4,3.6,3.5,3.6c2,0,3.5-1.4,3.5-3.6c0-0.9-0.2-1.7-0.6-2.2h-1.3v0.1
	c0.6,0.5,0.9,1.1,0.9,2c0,1.5-1,2.5-2.4,2.5s-2.4-1-2.4-2.5c0-0.8,0.3-1.5,0.9-2V255H273C272.6,255.5,272.3,256.3,272.3,257.2
	 M273.4,265.1c0-1.2,0.7-2.1,1.8-2.2v4.5C274.1,267.1,273.4,266.3,273.4,265.1 M276.2,261.8h-0.7c-1.9,0-3.2,1.3-3.2,3.4
	c0,2,1.4,3.5,3.5,3.5s3.5-1.5,3.5-3.9c0-1-0.3-1.9-0.8-2.5h-1.2v0.1c0.6,0.6,0.9,1.5,0.9,2.5c0,1.5-0.8,2.5-2,2.7L276.2,261.8
	L276.2,261.8z M270.9,271.2v-3.1h-1.2v7.6h1.2v-3.1h8.2v-1.4H270.9z"/>
<path class="st0" d="M254.5,147.6c0-1.2,0.7-2.1,1.8-2.2v4.5C255.2,149.7,254.5,148.8,254.5,147.6 M257.3,144.3h-0.7
	c-1.9,0-3.2,1.3-3.2,3.4c0,2,1.4,3.5,3.5,3.5c2.1,0,3.5-1.5,3.5-3.9c0-1-0.3-1.9-0.8-2.5h-1.2v0.1c0.6,0.6,0.9,1.5,0.9,2.5
	c0,1.5-0.8,2.5-2,2.7L257.3,144.3L257.3,144.3z M253.4,155.1c0,1,0.3,1.8,1,2.2l0,0h-4.1v1.2h9.9v-1.2h-3.5c-1.4,0-2.3-0.7-2.3-2
	c0-1.1,0.7-1.8,2-1.8h3.7v-1.2h-3.9C254.5,152.4,253.4,153.4,253.4,155.1 M253.4,162.3c0,2.2,1.4,3.6,3.5,3.6c2,0,3.5-1.4,3.5-3.6
	c0-0.9-0.2-1.7-0.6-2.2h-1.3v0.1c0.6,0.5,0.9,1.1,0.9,2c0,1.5-1,2.5-2.4,2.5s-2.4-0.9-2.4-2.5c0-0.8,0.3-1.5,0.9-2v-0.1h-1.3
	C253.6,160.7,253.4,161.4,253.4,162.3 M253.4,169.4c0,1.5,0.9,2.6,2.1,2.6s1.8-0.6,1.9-2.4c0.1-1.2,0.3-1.6,0.9-1.6s1,0.6,1,1.5
	c0,1.1-0.3,1.9-0.9,2.4v0.1h1.3c0.5-0.6,0.7-1.4,0.7-2.5c0-1.6-0.8-2.6-2.1-2.6c-1.3,0-1.9,0.7-2,2.5c-0.1,1.1-0.3,1.5-0.8,1.5
	c-0.6,0-1-0.6-1-1.4c0-0.9,0.2-1.6,0.7-2.1v-0.1h-1.3C253.6,167.7,253.4,168.5,253.4,169.4 M260.2,173.4h-6.6v1.2h6.6V173.4z
	 M250.7,174.1c0,0.5,0.3,0.8,0.8,0.8s0.8-0.3,0.8-0.8s-0.3-0.8-0.8-0.8S250.7,173.6,250.7,174.1 M260.2,182v-5.8h-1.1v4.1l-4.6-4.1
	h-1v5.5h1.1v-3.9l4.6,4.1L260.2,182L260.2,182z M260.2,183.5h-9.9v1.2h9.9V183.5z M250.7,188.6c0,0.5,0.3,0.8,0.7,0.8
	s0.8-0.3,0.8-0.8c0-0.4-0.3-0.7-0.8-0.7C251,187.9,250.7,188.2,250.7,188.6 M250.7,191.4c0,0.4,0.3,0.7,0.7,0.7s0.8-0.3,0.8-0.7
	c0-0.5-0.3-0.8-0.8-0.8C251,190.7,250.7,191,250.7,191.4 M259.3,190c0,1.4-1,2.3-2.4,2.3s-2.4-0.9-2.4-2.3c0-1.3,1-2.3,2.4-2.3
	S259.3,188.7,259.3,190 M260.2,186.6h-6.6v1h1.1l0,0c-0.8,0.5-1.2,1.4-1.2,2.6c0,1.9,1.4,3.3,3.5,3.3c2.1,0,3.5-1.4,3.5-3.3
	c0-1.2-0.5-2.1-1.2-2.6l0,0h1.1v-1H260.2z M250.1,195c0,1.4,0.9,2.2,2.4,2.2h1.1v1.2h1.1v-1.2h5.6V196h-5.6v-2.1h-1.1v2.1h-1.1
	c-0.9,0-1.3-0.4-1.3-1.2c0-0.4,0.1-0.8,0.3-1.1v-0.1h-1.1C250.2,194,250.1,194.5,250.1,195 M255.5,205.3H252v-2.6c0-1.4,0.6-2,1.8-2
	s1.8,0.7,1.8,2v2.6H255.5z M250.8,206.6h9.4v-1.4h-3.5v-2.7c0-2.2-1-3.4-3-3.4s-3,1.1-3,3.4L250.8,206.6L250.8,206.6z M256.9,208.4
	h-1.2v3.9h1.2V208.4z M259.3,217.4c0,1.4-1,2.3-2.4,2.3s-2.4-0.9-2.4-2.3c0-1.3,1-2.3,2.4-2.3C258.3,215.1,259.3,216,259.3,217.4
	 M260.2,213.9h-9.9v1.2h4.2l0,0c-0.6,0.5-1,1.3-1,2.4c0,1.9,1.4,3.3,3.5,3.3c2.1,0,3.5-1.4,3.5-3.3c0-1.2-0.5-2.1-1.2-2.6l0,0h1.1
	v-1L260.2,213.9L260.2,213.9z M253.4,224.9c0,1.1,0.4,1.9,1.2,2.4l0,0h-1.1v1h6.6v-1.2h-3.5c-1.4,0-2.3-0.7-2.3-2
	c0-1.1,0.7-1.8,2-1.8h3.7v-1.2h-3.9C254.5,222.2,253.4,223.2,253.4,224.9 M259.3,233.7c0,1.4-1,2.3-2.4,2.3s-2.4-0.9-2.4-2.3
	c0-1.3,1-2.3,2.4-2.3S259.3,232.3,259.3,233.7 M260.2,230.2h-6.6v1h1.1l0,0c-0.8,0.5-1.2,1.4-1.2,2.6c0,1.9,1.4,3.3,3.5,3.3
	c2.1,0,3.5-1.4,3.5-3.3c0-1.2-0.5-2.1-1.2-2.6l0,0h1.1v-1H260.2z M260.2,238.6h-9.9v1.2h9.9V238.6z M253.4,244.3
	c0,1.1,0.4,1.9,1.2,2.4l0,0h-1.1v1h6.6v-1.2h-3.5c-1.4,0-2.3-0.7-2.3-2c0-1.1,0.7-1.8,2-1.8h3.7v-1.2h-3.9
	C254.5,241.5,253.4,242.6,253.4,244.3 M260.2,249.6h-6.6v1.2h6.6V249.6z M250.7,250.2c0,0.5,0.3,0.8,0.8,0.8s0.8-0.3,0.8-0.8
	s-0.3-0.8-0.8-0.8S250.7,249.7,250.7,250.2 M254.5,255.6c0-1.2,0.7-2.1,1.8-2.2v4.5C255.2,257.6,254.5,256.7,254.5,255.6
	 M257.3,252.2h-0.7c-1.9,0-3.2,1.3-3.2,3.4c0,2,1.4,3.5,3.5,3.5c2.1,0,3.5-1.5,3.5-3.9c0-1-0.3-1.9-0.8-2.5h-1.2v0.1
	c0.6,0.6,0.9,1.5,0.9,2.5c0,1.5-0.8,2.5-2,2.7L257.3,252.2L257.3,252.2z M253.4,263c0,1,0.3,1.8,1,2.2l0,0h-4.1v1.2h9.9v-1.2h-3.5
	c-1.4,0-2.3-0.7-2.3-2c0-1.1,0.7-1.8,2-1.8h3.7v-1.2h-3.9C254.5,260.3,253.4,261.3,253.4,263 M255.4,274.3H252v-2.7
	c0-1.4,0.6-2,1.7-2c1.2,0,1.7,0.7,1.7,2V274.3z M260.2,274.3h-3.6v-2.5l3.6-2.3v-1.6l-3.7,2.5c-0.3-1.4-1.3-2.2-2.8-2.2
	c-1.9,0-2.9,1.1-2.9,3.4v4.1h9.4V274.3z"/>
<g id="Ebene_1_Kopie_00000109002030260505761730000001543674881803421864_">
	<g>
		<path d="M316.4,306v-20.4H309V306c0,2.3-0.7,4.2-2.2,5.8c-0.7,0.7-1.5,1.3-2.3,1.7c-0.2,0.1-0.2,0.1-0.4,0.2
			c-1.1,0.6-1.9,1.7-1.9,3.1c0,1.9,1.5,3.4,3.4,3.4c0.3,0,0.9-0.1,1.3-0.3c1.9-0.7,3.7-1.8,5.2-3.3C315,313.7,316.4,310.2,316.4,306
			"/>
		<path d="M285.4,306c0,4.2,1.4,7.7,4.2,10.6c1.5,1.5,3.3,2.6,5.2,3.3c0.4,0.2,1,0.3,1.3,0.3c1.9,0,3.4-1.5,3.4-3.4
			c0-1.4-0.8-2.5-1.9-3.1c-0.2-0.1-0.2-0.1-0.4-0.2c-0.8-0.4-1.6-1-2.3-1.7c-1.5-1.6-2.2-3.5-2.2-5.8v-20.4h-7.3V306"/>
	</g>
</g>
</svg>
